<mxfile host="app.diagrams.net" modified="2024-06-07T22:47:24.334Z" agent="Mozilla/5.0 (Windows NT 10.0; Win64; x64) AppleWebKit/537.36 (KHTML, like Gecko) Chrome/123.0.0.0 Safari/537.36 OPR/109.0.0.0" etag="Lvi5xOofZCKeRR-seGFu" version="24.5.2" type="device">
  <diagram name="Page-1" id="2YBvvXClWsGukQMizWep">
    <mxGraphModel dx="1393" dy="804" grid="1" gridSize="10" guides="1" tooltips="1" connect="1" arrows="1" fold="1" page="1" pageScale="1" pageWidth="850" pageHeight="1100" math="0" shadow="0">
      <root>
        <mxCell id="0" />
        <mxCell id="1" parent="0" />
        <mxCell id="C_s4Nj9TxJn8132ior16-14" style="edgeStyle=orthogonalEdgeStyle;rounded=0;orthogonalLoop=1;jettySize=auto;html=1;exitX=1;exitY=0.5;exitDx=0;exitDy=0;entryX=0;entryY=0.5;entryDx=0;entryDy=0;fillColor=#dae8fc;strokeColor=#6c8ebf;" edge="1" parent="1" source="C_s4Nj9TxJn8132ior16-1" target="C_s4Nj9TxJn8132ior16-3">
          <mxGeometry relative="1" as="geometry" />
        </mxCell>
        <mxCell id="C_s4Nj9TxJn8132ior16-1" value="Sart" style="whiteSpace=wrap;html=1;fillColor=#d5e8d4;strokeColor=#82b366;" vertex="1" parent="1">
          <mxGeometry x="80" y="80" width="120" height="60" as="geometry" />
        </mxCell>
        <mxCell id="C_s4Nj9TxJn8132ior16-2" value="End" style="whiteSpace=wrap;html=1;fillColor=#f8cecc;strokeColor=#b85450;" vertex="1" parent="1">
          <mxGeometry x="80" y="200" width="120" height="60" as="geometry" />
        </mxCell>
        <mxCell id="C_s4Nj9TxJn8132ior16-12" style="edgeStyle=orthogonalEdgeStyle;rounded=0;orthogonalLoop=1;jettySize=auto;html=1;exitX=0.25;exitY=1;exitDx=0;exitDy=0;entryX=1;entryY=0.5;entryDx=0;entryDy=0;fillColor=#e1d5e7;strokeColor=#9673a6;" edge="1" parent="1" source="C_s4Nj9TxJn8132ior16-3" target="C_s4Nj9TxJn8132ior16-2">
          <mxGeometry relative="1" as="geometry" />
        </mxCell>
        <mxCell id="C_s4Nj9TxJn8132ior16-13" style="edgeStyle=orthogonalEdgeStyle;rounded=0;orthogonalLoop=1;jettySize=auto;html=1;exitX=1;exitY=0.5;exitDx=0;exitDy=0;entryX=0;entryY=0.5;entryDx=0;entryDy=0;fillColor=#e1d5e7;strokeColor=#9673a6;" edge="1" parent="1" source="C_s4Nj9TxJn8132ior16-3" target="C_s4Nj9TxJn8132ior16-4">
          <mxGeometry relative="1" as="geometry" />
        </mxCell>
        <mxCell id="C_s4Nj9TxJn8132ior16-3" value="Transition" style="whiteSpace=wrap;html=1;fillColor=#e1d5e7;strokeColor=#9673a6;" vertex="1" parent="1">
          <mxGeometry x="280" y="80" width="120" height="60" as="geometry" />
        </mxCell>
        <mxCell id="C_s4Nj9TxJn8132ior16-16" style="edgeStyle=orthogonalEdgeStyle;rounded=0;orthogonalLoop=1;jettySize=auto;html=1;exitX=0.75;exitY=1;exitDx=0;exitDy=0;fillColor=#e1d5e7;strokeColor=#9673a6;" edge="1" parent="1" source="C_s4Nj9TxJn8132ior16-4" target="C_s4Nj9TxJn8132ior16-6">
          <mxGeometry relative="1" as="geometry" />
        </mxCell>
        <mxCell id="C_s4Nj9TxJn8132ior16-30" style="edgeStyle=orthogonalEdgeStyle;rounded=0;orthogonalLoop=1;jettySize=auto;html=1;exitX=0.25;exitY=1;exitDx=0;exitDy=0;fillColor=#e1d5e7;strokeColor=#9673a6;" edge="1" parent="1" source="C_s4Nj9TxJn8132ior16-4" target="C_s4Nj9TxJn8132ior16-5">
          <mxGeometry relative="1" as="geometry" />
        </mxCell>
        <mxCell id="C_s4Nj9TxJn8132ior16-4" value="Turn Phase" style="whiteSpace=wrap;html=1;fillColor=#e1d5e7;strokeColor=#9673a6;" vertex="1" parent="1">
          <mxGeometry x="520" y="80" width="120" height="60" as="geometry" />
        </mxCell>
        <mxCell id="C_s4Nj9TxJn8132ior16-24" style="edgeStyle=orthogonalEdgeStyle;rounded=0;orthogonalLoop=1;jettySize=auto;html=1;exitX=0.5;exitY=1;exitDx=0;exitDy=0;fillColor=#e1d5e7;strokeColor=#9673a6;" edge="1" parent="1" source="C_s4Nj9TxJn8132ior16-5" target="C_s4Nj9TxJn8132ior16-7">
          <mxGeometry relative="1" as="geometry">
            <Array as="points">
              <mxPoint x="500" y="280" />
              <mxPoint x="420" y="280" />
            </Array>
          </mxGeometry>
        </mxCell>
        <mxCell id="C_s4Nj9TxJn8132ior16-5" value="Enemy Turn" style="whiteSpace=wrap;html=1;fillColor=#e1d5e7;strokeColor=#9673a6;" vertex="1" parent="1">
          <mxGeometry x="440" y="200" width="120" height="60" as="geometry" />
        </mxCell>
        <mxCell id="C_s4Nj9TxJn8132ior16-18" style="edgeStyle=orthogonalEdgeStyle;rounded=0;orthogonalLoop=1;jettySize=auto;html=1;exitX=0.75;exitY=1;exitDx=0;exitDy=0;fillColor=#dae8fc;strokeColor=#6c8ebf;" edge="1" parent="1" source="C_s4Nj9TxJn8132ior16-6" target="C_s4Nj9TxJn8132ior16-9">
          <mxGeometry relative="1" as="geometry">
            <Array as="points">
              <mxPoint x="700" y="260" />
            </Array>
          </mxGeometry>
        </mxCell>
        <mxCell id="C_s4Nj9TxJn8132ior16-25" style="edgeStyle=orthogonalEdgeStyle;rounded=0;orthogonalLoop=1;jettySize=auto;html=1;exitX=0.5;exitY=1;exitDx=0;exitDy=0;fillColor=#e1d5e7;strokeColor=#9673a6;" edge="1" parent="1" source="C_s4Nj9TxJn8132ior16-6" target="C_s4Nj9TxJn8132ior16-8">
          <mxGeometry relative="1" as="geometry">
            <Array as="points">
              <mxPoint x="660" y="310" />
              <mxPoint x="660" y="310" />
            </Array>
          </mxGeometry>
        </mxCell>
        <mxCell id="C_s4Nj9TxJn8132ior16-26" style="edgeStyle=orthogonalEdgeStyle;rounded=0;orthogonalLoop=1;jettySize=auto;html=1;exitX=0.25;exitY=1;exitDx=0;exitDy=0;fillColor=#dae8fc;strokeColor=#6c8ebf;" edge="1" parent="1" source="C_s4Nj9TxJn8132ior16-6" target="C_s4Nj9TxJn8132ior16-7">
          <mxGeometry relative="1" as="geometry">
            <Array as="points">
              <mxPoint x="630" y="300" />
              <mxPoint x="450" y="300" />
            </Array>
          </mxGeometry>
        </mxCell>
        <mxCell id="C_s4Nj9TxJn8132ior16-6" value="Character Turn" style="whiteSpace=wrap;html=1;fillColor=#dae8fc;strokeColor=#6c8ebf;" vertex="1" parent="1">
          <mxGeometry x="600" y="200" width="120" height="60" as="geometry" />
        </mxCell>
        <mxCell id="C_s4Nj9TxJn8132ior16-22" style="edgeStyle=orthogonalEdgeStyle;rounded=0;orthogonalLoop=1;jettySize=auto;html=1;exitX=0.5;exitY=1;exitDx=0;exitDy=0;fillColor=#e1d5e7;strokeColor=#9673a6;" edge="1" parent="1" source="C_s4Nj9TxJn8132ior16-7" target="C_s4Nj9TxJn8132ior16-11">
          <mxGeometry relative="1" as="geometry" />
        </mxCell>
        <mxCell id="C_s4Nj9TxJn8132ior16-7" value="Normal Attack" style="whiteSpace=wrap;html=1;fillColor=#ffe6cc;strokeColor=#d79b00;" vertex="1" parent="1">
          <mxGeometry x="360" y="320" width="120" height="60" as="geometry" />
        </mxCell>
        <mxCell id="C_s4Nj9TxJn8132ior16-19" style="edgeStyle=orthogonalEdgeStyle;rounded=0;orthogonalLoop=1;jettySize=auto;html=1;exitX=0.75;exitY=1;exitDx=0;exitDy=0;fillColor=#dae8fc;strokeColor=#6c8ebf;" edge="1" parent="1" source="C_s4Nj9TxJn8132ior16-8" target="C_s4Nj9TxJn8132ior16-9">
          <mxGeometry relative="1" as="geometry">
            <Array as="points">
              <mxPoint x="650" y="410" />
              <mxPoint x="680" y="410" />
            </Array>
          </mxGeometry>
        </mxCell>
        <mxCell id="C_s4Nj9TxJn8132ior16-20" style="edgeStyle=orthogonalEdgeStyle;rounded=0;orthogonalLoop=1;jettySize=auto;html=1;exitX=0.25;exitY=1;exitDx=0;exitDy=0;fillColor=#dae8fc;strokeColor=#6c8ebf;" edge="1" parent="1" source="C_s4Nj9TxJn8132ior16-8" target="C_s4Nj9TxJn8132ior16-10">
          <mxGeometry relative="1" as="geometry" />
        </mxCell>
        <mxCell id="C_s4Nj9TxJn8132ior16-27" style="edgeStyle=orthogonalEdgeStyle;rounded=0;orthogonalLoop=1;jettySize=auto;html=1;exitX=0;exitY=0.5;exitDx=0;exitDy=0;fillColor=#dae8fc;strokeColor=#6c8ebf;" edge="1" parent="1" source="C_s4Nj9TxJn8132ior16-8" target="C_s4Nj9TxJn8132ior16-7">
          <mxGeometry relative="1" as="geometry" />
        </mxCell>
        <mxCell id="C_s4Nj9TxJn8132ior16-8" value="Magical Turn" style="whiteSpace=wrap;html=1;fillColor=#dae8fc;strokeColor=#6c8ebf;" vertex="1" parent="1">
          <mxGeometry x="560" y="320" width="120" height="60" as="geometry" />
        </mxCell>
        <mxCell id="C_s4Nj9TxJn8132ior16-28" style="edgeStyle=orthogonalEdgeStyle;rounded=0;orthogonalLoop=1;jettySize=auto;html=1;exitX=1;exitY=0.5;exitDx=0;exitDy=0;entryX=1;entryY=0.5;entryDx=0;entryDy=0;fillColor=#e1d5e7;strokeColor=#9673a6;" edge="1" parent="1" source="C_s4Nj9TxJn8132ior16-9" target="C_s4Nj9TxJn8132ior16-6">
          <mxGeometry relative="1" as="geometry" />
        </mxCell>
        <mxCell id="C_s4Nj9TxJn8132ior16-9" value="Equip" style="whiteSpace=wrap;html=1;fillColor=#ffe6cc;strokeColor=#d79b00;" vertex="1" parent="1">
          <mxGeometry x="640" y="440" width="120" height="60" as="geometry" />
        </mxCell>
        <mxCell id="C_s4Nj9TxJn8132ior16-21" style="edgeStyle=orthogonalEdgeStyle;rounded=0;orthogonalLoop=1;jettySize=auto;html=1;exitX=0;exitY=0.5;exitDx=0;exitDy=0;fillColor=#e1d5e7;strokeColor=#9673a6;" edge="1" parent="1" source="C_s4Nj9TxJn8132ior16-10" target="C_s4Nj9TxJn8132ior16-11">
          <mxGeometry relative="1" as="geometry" />
        </mxCell>
        <mxCell id="C_s4Nj9TxJn8132ior16-10" value="Spell Cast" style="whiteSpace=wrap;html=1;fillColor=#ffe6cc;strokeColor=#d79b00;" vertex="1" parent="1">
          <mxGeometry x="480" y="440" width="120" height="60" as="geometry" />
        </mxCell>
        <mxCell id="C_s4Nj9TxJn8132ior16-29" style="edgeStyle=orthogonalEdgeStyle;rounded=0;orthogonalLoop=1;jettySize=auto;html=1;exitX=0;exitY=0.5;exitDx=0;exitDy=0;fillColor=#e1d5e7;strokeColor=#9673a6;" edge="1" parent="1" source="C_s4Nj9TxJn8132ior16-11" target="C_s4Nj9TxJn8132ior16-3">
          <mxGeometry relative="1" as="geometry">
            <Array as="points">
              <mxPoint x="300" y="470" />
              <mxPoint x="300" y="290" />
              <mxPoint x="340" y="290" />
            </Array>
          </mxGeometry>
        </mxCell>
        <mxCell id="C_s4Nj9TxJn8132ior16-11" value="End Turn" style="whiteSpace=wrap;html=1;fillColor=#f8cecc;strokeColor=#b85450;" vertex="1" parent="1">
          <mxGeometry x="320" y="440" width="120" height="60" as="geometry" />
        </mxCell>
        <mxCell id="C_s4Nj9TxJn8132ior16-31" style="edgeStyle=orthogonalEdgeStyle;rounded=0;orthogonalLoop=1;jettySize=auto;html=1;exitX=1;exitY=0.75;exitDx=0;exitDy=0;fillColor=#e1d5e7;strokeColor=#9673a6;" edge="1" parent="1" source="C_s4Nj9TxJn8132ior16-3" target="C_s4Nj9TxJn8132ior16-3">
          <mxGeometry relative="1" as="geometry">
            <Array as="points">
              <mxPoint x="420" y="125" />
              <mxPoint x="420" y="160" />
              <mxPoint x="370" y="160" />
            </Array>
          </mxGeometry>
        </mxCell>
        <mxCell id="C_s4Nj9TxJn8132ior16-32" value="&lt;blockquote style=&quot;margin: 0 0 0 40px; border: none; padding: 0px;&quot;&gt;&lt;div style=&quot;&quot;&gt;&lt;span style=&quot;background-color: initial;&quot;&gt;Green:&amp;nbsp; &amp;nbsp;Stand By&lt;/span&gt;&lt;/div&gt;&lt;div style=&quot;&quot;&gt;Purple:&amp;nbsp; &amp;nbsp;Automatic&lt;/div&gt;&lt;div style=&quot;&quot;&gt;Blue:&amp;nbsp; &amp;nbsp; &amp;nbsp; By Decision&lt;/div&gt;&lt;div style=&quot;&quot;&gt;Orange: Interactions&lt;/div&gt;&lt;div style=&quot;&quot;&gt;Red:&amp;nbsp; &amp;nbsp; &amp;nbsp; Phase End&lt;/div&gt;&lt;/blockquote&gt;" style="shape=note;whiteSpace=wrap;html=1;backgroundOutline=1;fontColor=#000000;darkOpacity=0.05;fillColor=#FFF9B2;strokeColor=none;fillStyle=solid;direction=west;gradientDirection=north;gradientColor=#FFF2A1;shadow=1;size=20;pointerEvents=1;align=left;" vertex="1" parent="1">
          <mxGeometry x="80" y="280" width="200" height="160" as="geometry" />
        </mxCell>
      </root>
    </mxGraphModel>
  </diagram>
</mxfile>
